<svg xmlns="http://www.w3.org/2000/svg" width="235" height="40" viewBox="0 0 62.177 10.583">
    <path style="font-style:normal;font-variant:normal;font-weight:400;font-stretch:normal;font-size:11.73523808px;line-height:1.25;font-family:Nilland-Black;-inkscape-font-specification:Nilland-Black;letter-spacing:0;word-spacing:0;fill:#000;fill-opacity:1;stroke:none;stroke-width:.29338095" d="M8.838 292.548q0-1.912-1.253-3.182-1.252-1.27-3.166-1.27t-3.167 1.27Q0 290.636 0 292.548q0 1.911 1.252 3.182Q2.505 297 4.42 297t3.166-1.27q1.253-1.271 1.253-3.182zm-1.418 0q0 1.375-.85 2.26-.84.875-2.151.875-1.3 0-2.15-.886-.851-.874-.851-2.25 0-1.375.85-2.249.851-.886 2.15-.886 1.312 0 2.151.874.851.898.851 2.262z" transform="translate(0 -286.417)"/>
    <path style="font-style:normal;font-variant:normal;font-weight:400;font-stretch:normal;font-size:11.73523808px;line-height:1.25;font-family:Nilland-Black;-inkscape-font-specification:Nilland-Black;letter-spacing:0;word-spacing:0;fill:#000;fill-opacity:1;stroke:none;stroke-width:.29338095" d="M19.542 296.883v-1.27h-1.004v-6.12h1.004v-1.27h-2.694l-2.505 6.026-2.528-6.026H9.133v1.27h1.04V296.884h2.268v-1.27h-.957v-4.79l2.481 6.06h.638l2.517-6.049v6.049z" transform="translate(0 -286.417)"/>
    <path style="font-style:normal;font-variant:normal;font-weight:400;font-stretch:normal;font-size:11.73523808px;line-height:1.25;font-family:Nilland-Black;-inkscape-font-specification:Nilland-Black;letter-spacing:0;word-spacing:0;fill:#000;fill-opacity:1;stroke:none;stroke-width:.29338095" d="M29.585 289.494v-1.27h-2.35v6.142q-.816-1.259-1.631-2.448-.58-.862-1.17-1.748-.59-.898-1.252-1.947H20.7v1.27h1.076V296.884h2.445v-1.27h-1.134v-5.047l4.254 6.422h1.205v-7.494z" transform="translate(0 -286.417)"/>
    <path style="font-style:normal;font-variant:normal;font-weight:400;font-stretch:normal;font-size:11.73523808px;line-height:1.25;font-family:Nilland-Black;-inkscape-font-specification:Nilland-Black;letter-spacing:0;word-spacing:0;fill:#000;fill-opacity:1;stroke:none;stroke-width:.29338095" d="M32.24 287.909v-1.492H30.82v1.492zm1.027 8.974v-1.27h-1.016v-7.39h-1.418v7.39H29.83v1.27z" transform="translate(0 -286.417)"/>
    <path style="font-style:normal;font-variant:normal;font-weight:400;font-stretch:normal;font-size:11.73523808px;line-height:1.25;font-family:Nilland;-inkscape-font-specification:Nilland;letter-spacing:0;word-spacing:0;fill:#000;fill-opacity:1;stroke:none;stroke-width:.29338095" d="M40.084 290.158v-1.562h-6.38v2.495h.543v-1.97h2.316v6.865h-1.099v.524h1.76v-7.39h2.316v1.038z" transform="translate(0 -286.417)"/>
    <path style="font-style:normal;font-variant:normal;font-weight:400;font-stretch:normal;font-size:11.73523808px;line-height:1.25;font-family:Nilland;-inkscape-font-specification:Nilland;letter-spacing:0;word-spacing:0;fill:#000;fill-opacity:1;stroke:none;stroke-width:.29338095" d="M46.869 296.51v-.524H42.131v-3.264h3.332v-.524H42.13v-3.077h4.194v1.398h.532v-1.923h-6.416v.525h1.028v7.389z" transform="translate(0 -286.417)"/>
    <path style="font-style:normal;font-variant:normal;font-weight:400;font-stretch:normal;font-size:11.73523808px;line-height:1.25;font-family:Nilland;-inkscape-font-specification:Nilland;letter-spacing:0;word-spacing:0;fill:#000;fill-opacity:1;stroke:none;stroke-width:.29338095" d="m54.793 293.935-.544-.315q-.472 1.282-1.288 1.876-.803.56-1.914.56-1.477 0-2.41-.99-.945-1.003-.945-2.518 0-1.539.933-2.53.922-.979 2.375-.979 1.016 0 1.89.56.851.536 1.052 1.527h.555v-1.83h-.543v.594q-.59-.758-1.37-1.084-.816-.338-1.56-.338-1.76 0-2.883 1.142-1.11 1.13-1.11 2.938 0 1.83 1.11 2.96 1.099 1.119 2.895 1.119 1.252 0 2.233-.63.969-.629 1.524-2.062z" transform="translate(0 -286.417)"/>
    <path style="font-style:normal;font-variant:normal;font-weight:400;font-stretch:normal;font-size:11.73523808px;line-height:1.25;font-family:Nilland;-inkscape-font-specification:Nilland;letter-spacing:0;word-spacing:0;fill:#000;fill-opacity:1;stroke:none;stroke-width:.29338095" d="M62.177 289.12v-.524h-2.67v.525h1.04v2.995h-4.384v-3.52h-1.642v.525h.98v6.865h-.968v.524h1.63V292.63h4.384v3.357h-1.028v.524h1.69v-7.389z" transform="translate(0 -286.417)"/>
</svg>
